<svg height="335.410197" viewBox="0 0 120 135" width="298.142397" xmlns="http://www.w3.org/2000/svg" xmlns:xlink="http://www.w3.org/1999/xlink"><clipPath id="a"><path d="m328.559 34.465h97.087v112.63h-97.087z"/></clipPath><clipPath id="b"><path d="m328.559 38.996h93.543v104.272h-93.543z"/></clipPath><clipPath id="c"><path d="m328.559 34.465h97.087v112.63h-97.087z"/></clipPath><g clip-path="url(#a)" transform="matrix(1.25 0 0 -1.25 -409.35619125 181.5072825)"><g fill="#231f20"><path d="m0 0v.019c.38.153.655.374.823.666.167.292.252.638.252 1.037 0 .26-.046.503-.139.728-.091.225-.224.423-.399.594-.174.171-.383.306-.627.404-.245.098-.519.148-.823.148h-3.662v-6.792h1.493v2.654h1.493c.375 0 .644-.083.809-.247.165-.165.272-.425.323-.78.038-.273.067-.558.086-.856s.07-.555.152-.771h1.493c-.069.096-.121.211-.157.347-.034.137-.06.281-.076.433-.016.153-.027.302-.033.448-.006.145-.013.272-.019.38-.013.171-.037.342-.071.513-.035.172-.091.328-.167.471s-.174.267-.294.371c-.121.105-.273.182-.457.233m-.419 1.494c0-.343-.085-.59-.257-.742-.171-.153-.428-.229-.77-.229h-1.636v1.912h1.636c.342 0 .599-.074.77-.223.172-.15.257-.389.257-.718" transform="translate(373.4696 42.3564)"/><path d="m0 0v-1.256h-3.586v-1.455h3.291v-1.16h-3.291v-1.665h3.662v-1.255h-5.155v6.791z" transform="translate(381.0776 45.9522)"/><path d="m0 0c-.324-.136-.65-.205-.98-.205-.52 0-.988.09-1.403.271-.416.181-.766.43-1.051.747-.286.317-.504.69-.656 1.117-.153.429-.229.89-.229 1.385 0 .507.076.978.229 1.412.152.434.37.813.656 1.137.285.323.635.577 1.051.761.415.183.883.276 1.403.276.349 0 .686-.052 1.013-.157s.622-.259.884-.462c.264-.202.481-.453.653-.751.17-.298.275-.64.313-1.027h-1.427c-.089.38-.26.666-.514.856s-.561.285-.922.285c-.336 0-.621-.065-.856-.195s-.425-.304-.571-.523-.252-.468-.318-.746c-.067-.28-.101-.568-.101-.866 0-.286.034-.563.101-.832.066-.27.172-.512.318-.729.146-.215.336-.388.571-.517.235-.13.52-.195.856-.195.494 0 .877.125 1.146.375.269.251.427.614.471 1.089h-1.503v1.113h2.854v-3.671h-.952l-.152.77c-.266-.343-.561-.582-.884-.718" transform="translate(386.1674 39.2132)"/><path d="m391.168 39.182h-1.493v6.792h1.493z"/><path d="m0 0c.083-.159.192-.287.328-.385.137-.098.297-.171.48-.219.185-.047.375-.071.572-.071.133 0 .275.011.427.033s.295.065.429.128c.133.064.244.151.333.262.088.111.133.252.133.423 0 .184-.059.333-.176.447-.118.115-.271.21-.462.286-.19.076-.405.142-.647.199-.24.057-.484.121-.732.191-.254.063-.501.141-.742.233-.241.091-.456.211-.647.356-.19.146-.343.328-.461.547-.117.219-.176.484-.176.795 0 .348.075.651.224.908.148.257.343.471.585.642.241.171.513.298.817.38.305.083.61.124.914.124.354 0 .696-.04 1.022-.119.327-.079.617-.208.871-.385.253-.178.455-.404.603-.68.15-.276.224-.61.224-1.003h-1.446c-.012.202-.055.37-.128.503-.073.134-.17.238-.29.315-.121.076-.259.129-.414.161s-.325.048-.509.048c-.12 0-.241-.013-.361-.038-.121-.026-.23-.07-.328-.133-.099-.064-.18-.143-.243-.238s-.095-.216-.095-.362c0-.133.025-.241.076-.323.051-.083.151-.159.299-.229.15-.07.356-.139.619-.209s.607-.158 1.032-.266c.126-.026.303-.072.528-.138.225-.067.448-.173.671-.319.221-.146.413-.341.575-.585s.243-.556.243-.937c0-.31-.061-.599-.181-.865-.121-.266-.3-.496-.538-.69-.237-.193-.532-.344-.884-.451-.352-.108-.76-.162-1.222-.162-.375 0-.738.046-1.09.138-.351.091-.662.236-.932.432-.27.197-.484.448-.642.752-.158.304-.234.666-.229 1.084h1.447c0-.228.041-.422.123-.58" transform="translate(393.7686 40.8219)"/><path d="m0 0v1.256h5.564v-1.256h-2.035v-5.536h-1.494v5.536z" transform="translate(398.2553 44.6967)"/><path d="m0 0v-1.256h-3.585v-1.455h3.29v-1.16h-3.29v-1.665h3.661v-1.255h-5.155v6.791z" transform="translate(409.7571 45.9522)"/><path d="m0 0v.019c.38.153.654.374.823.666.167.292.251.638.251 1.037 0 .26-.045.503-.137.728s-.225.423-.4.594c-.174.171-.384.306-.628.404s-.518.148-.822.148h-3.662v-6.792h1.493v2.654h1.493c.374 0 .644-.083.809-.247.165-.165.272-.425.323-.78.038-.273.067-.558.086-.856s.07-.555.152-.771h1.493c-.069.096-.121.211-.156.347-.036.137-.061.281-.077.433-.016.153-.027.302-.033.448-.007.145-.013.272-.019.38-.013.171-.037.342-.072.513-.034.172-.09.328-.166.471s-.175.267-.294.371c-.121.105-.274.182-.457.233m-.419 1.494c0-.343-.086-.59-.257-.742-.171-.153-.428-.229-.77-.229h-1.636v1.912h1.636c.342 0 .599-.074.77-.223.171-.15.257-.389.257-.718" transform="translate(415.719 42.3564)"/></g><path d="m0 0v.318c0 1.973-1.599 3.572-3.573 3.572-.937 0-1.788-.364-2.426-.955 0 0-85.247-85.377-85.61-85.758-.439-.461-.759-1.378-.759-2.216 0-1.973 1.6-3.572 3.573-3.572.046 0 84.843-.008 84.843-.008s3.952 0 3.952 3.952z" fill="#fff200" transform="translate(421.5144 138.7908)"/></g><g clip-path="url(#b)" fill="none" transform="matrix(1.25 0 0 -1.25 -409.35619125 181.5072825)"><path d="m0 0v.318c0 1.973-1.599 3.572-3.573 3.572-.937 0-1.788-.364-2.426-.955 0 0-85.247-85.377-85.61-85.758-.439-.461-.759-1.378-.759-2.216 0-1.973 1.6-3.572 3.573-3.572.046 0 84.843-.008 84.843-.008s3.952 0 3.952 3.952z" stroke="#fff200" stroke-width="1.077" transform="translate(421.5144 138.7908)"/><path d="m0 0v.318c0 1.973-1.599 3.572-3.573 3.572-.937 0-1.788-.364-2.426-.955 0 0-85.247-85.377-85.61-85.758-.439-.461-.759-1.378-.759-2.216 0-1.973 1.6-3.572 3.573-3.572.046 0 84.843-.008 84.843-.008s3.952 0 3.952 3.952z" stroke="#231f20" stroke-width="1.176" transform="translate(421.5144 138.7908)"/></g><g clip-path="url(#c)" transform="matrix(1.25 0 0 -1.25 -409.35619125 181.5072825)"><path d="m0 0c.909 0 1.612-.724 1.612-1.664 0-.962-.703-1.687-1.612-1.687-.919 0-1.623.725-1.623 1.687 0 .94.704 1.664 1.623 1.664m0-3.639c1.071 0 1.97.845 1.97 1.975 0 1.108-.899 1.953-1.97 1.953-1.077 0-1.98-.845-1.98-1.953 0-1.13.903-1.975 1.98-1.975m-.409 2.826h.472c.242 0 .505-.048.505-.353 0-.362-.289-.377-.605-.377h-.372zm0-1.02h.378l.625-.987h.383l-.657 1.013c.342.037.605.21.605.626 0 .441-.258.657-.804.657h-.888v-2.296h.358zm-29.064.772c-.223.146-.447.253-.673.32s-.402.113-.529.139c-.427.107-.772.196-1.036.267-.264.07-.471.139-.621.21-.149.07-.249.146-.3.229-.052.083-.076.191-.076.325 0 .146.031.267.094.362.064.096.146.175.244.239.098.063.209.108.329.134.121.025.242.037.363.037.185 0 .355-.015.511-.047s.294-.086.415-.163c.121-.076.218-.181.291-.314.073-.134.116-.303.129-.506h1.451c0 .394-.075.73-.224 1.007-.15.276-.352.504-.606.682-.255.178-.546.307-.874.387s-.67.119-1.026.119c-.305 0-.611-.041-.916-.124-.306-.082-.58-.21-.821-.382-.242-.172-.438-.386-.587-.644-.15-.258-.225-.562-.225-.912 0-.311.059-.577.177-.797.117-.219.272-.403.463-.549s.407-.265.649-.357c.242-.093.49-.171.745-.234.248-.071.493-.134.735-.191.241-.058.458-.124.648-.201.191-.076.346-.172.464-.286.118-.115.176-.264.176-.449 0-.172-.044-.313-.134-.425-.089-.111-.2-.198-.333-.262-.134-.064-.278-.107-.43-.129-.153-.022-.296-.033-.43-.033-.197 0-.388.023-.572.071-.185.048-.345.121-.482.22s-.247.227-.33.386c-.083.16-.124.354-.124.582h-1.451c-.007-.42.07-.782.229-1.088.159-.305.374-.557.645-.753.27-.198.582-.343.935-.435s.717-.138 1.093-.138c.465 0 .874.054 1.227.162s.649.259.887.453c.239.195.419.425.54.692.121.268.181.557.181.869 0 .382-.081.695-.243.94s-.355.441-.578.587m-17.327-2.682c.286-.318.638-.568 1.055-.749.417-.182.886-.273 1.408-.273.331 0 .659.069.983.206.325.137.621.377.888.721l.153-.774h.954v3.685h-2.863v-1.117h1.508c-.044-.477-.202-.841-.473-1.093-.27-.251-.653-.377-1.15-.377-.337 0-.624.065-.859.196-.236.13-.426.304-.573.52-.146.216-.253.46-.32.731-.066.27-.1.548-.1.834 0 .299.034.589.1.869.067.28.174.53.32.75.147.219.337.394.573.525.235.13.522.195.859.195.363 0 .671-.095.926-.286.254-.191.426-.478.515-.859h1.433c-.039.388-.144.731-.315 1.031-.172.299-.391.55-.655.754-.264.203-.56.358-.887.463-.328.105-.667.157-1.017.157-.522 0-.991-.092-1.408-.276-.417-.185-.769-.44-1.055-.764-.286-.325-.505-.705-.659-1.141-.152-.436-.229-.909-.229-1.418 0-.496.077-.959.229-1.388.154-.43.373-.804.659-1.122m30.182-3.123h-3.623v1.146c0 .788.154 1.349.462 1.682.308.332.82.499 1.535.499.665 0 1.305-.037 1.922-.111v3.918c-.444.025-.9.056-1.368.093s-.937.055-1.405.055c-2.143 0-3.746-.542-4.805-1.626-1.06-1.085-1.59-2.477-1.59-4.177v-1.479h-3.142v-3.512h3.142v-15.601h5.249v15.601h3.623zm4.756-7.505c.024.37.104.788.24 1.257.135.468.37.912.702 1.331.334.419.777.77 1.332 1.054.554.282 1.25.425 2.088.425 1.281 0 2.237-.346 2.865-1.036.629-.689 1.066-1.7 1.312-3.031zm11.737 4.547c-.776 1.059-1.769 1.904-2.976 2.533-1.208.628-2.624.942-4.251.942-1.455 0-2.779-.259-3.974-.776-1.196-.517-2.225-1.226-3.087-2.126-.863-.9-1.528-1.965-1.996-3.197-.469-1.233-.703-2.564-.703-3.993 0-1.479.228-2.834.684-4.067.456-1.232 1.103-2.291 1.941-3.179.838-.887 1.861-1.571 3.068-2.051 1.207-.481 2.563-.721 4.067-.721 2.168 0 4.017.492 5.545 1.478 1.528.986 2.662 2.625 3.401 4.917h-4.621c-.173-.591-.641-1.152-1.405-1.682s-1.676-.795-2.735-.795c-1.479 0-2.613.382-3.402 1.147-.788.763-1.219 1.996-1.293 3.696h13.789c.098 1.479-.025 2.896-.37 4.251s-.906 2.563-1.682 3.623m-34.643-8.761c0-.296-.031-.691-.092-1.183-.061-.493-.228-.98-.499-1.46-.271-.481-.69-.894-1.257-1.239s-1.368-.518-2.403-.518c-.419 0-.826.038-1.22.112s-.739.203-1.035.388-.53.437-.702.758c-.173.32-.259.714-.259 1.183 0 .492.086.899.259 1.22.172.32.4.585.684.794.283.209.615.376.998.5.381.123.77.221 1.164.295.419.074.838.136 1.257.185s.819.111 1.202.185c.381.074.739.166 1.072.277s.609.265.831.462zm5.25-3.142v9.944c0 1.158-.259 2.089-.777 2.791-.517.703-1.183 1.251-1.995 1.645-.814.394-1.714.659-2.7.795-.986.135-1.959.203-2.92.203-1.06 0-2.113-.105-3.161-.314-1.047-.21-1.99-.561-2.828-1.054s-1.528-1.146-2.07-1.959-.85-1.836-.924-3.068h5.25c.098 1.035.443 1.775 1.035 2.218.591.443 1.405.666 2.439.666.468 0 .906-.032 1.313-.093.406-.062.764-.185 1.072-.37s.554-.444.739-.776c.185-.333.277-.783.277-1.349.025-.543-.135-.956-.48-1.239-.345-.284-.813-.499-1.405-.647-.591-.147-1.27-.259-2.033-.333-.764-.073-1.541-.172-2.329-.295-.789-.124-1.571-.29-2.347-.499-.777-.21-1.467-.524-2.071-.943s-1.097-.979-1.479-1.682c-.382-.702-.573-1.596-.573-2.68 0-.986.167-1.836.499-2.551.334-.715.795-1.306 1.387-1.774.592-.469 1.281-.814 2.07-1.036.789-.221 1.639-.332 2.551-.332 1.183 0 2.341.173 3.475.518 1.133.344 2.119.947 2.957 1.811.025-.321.068-.635.13-.943.061-.309.141-.61.24-.906h5.324c-.247.394-.42.985-.518 1.775-.099.788-.148 1.614-.148 2.477m-8.085 22.251h.019l.859-2.501h-1.766zm-1.279-3.618h2.549l.515-1.518h1.556l-2.549 6.816h-1.536l-2.578-6.816h1.508zm-11.442-12.996c-.567.407-1.214.733-1.94.98-.728.246-1.473.456-2.237.628-.74.173-1.466.333-2.181.481s-1.349.314-1.904.499-1.005.425-1.35.721-.517.677-.517 1.146c0 .394.098.708.296.943.197.234.437.412.721.536.283.123.597.203.942.24s.666.055.961.055c.937 0 1.75-.179 2.441-.536.689-.357 1.071-1.041 1.145-2.051h4.991c-.099 1.182-.401 2.162-.906 2.938-.505.777-1.14 1.399-1.903 1.868-.765.467-1.634.8-2.607.997s-1.977.296-3.013.296c-1.035 0-2.046-.092-3.031-.277-.986-.185-1.873-.505-2.662-.961s-1.423-1.078-1.904-1.867c-.48-.789-.72-1.799-.72-3.031 0-.838.172-1.547.517-2.126s.801-1.06 1.368-1.442 1.213-.69 1.941-.924c.727-.234 1.472-.438 2.237-.61 1.872-.394 3.332-.789 4.38-1.183 1.047-.394 1.571-.986 1.571-1.774 0-.469-.111-.857-.333-1.165-.222-.309-.499-.554-.831-.739-.333-.185-.703-.321-1.109-.407-.407-.086-.795-.129-1.165-.129-.517 0-1.016.061-1.497.185-.481.123-.906.314-1.276.572-.369.259-.671.592-.905.999-.235.406-.351.893-.351 1.46h-4.991c.049-1.282.339-2.348.869-3.198s1.207-1.534 2.033-2.052c.825-.517 1.768-.886 2.828-1.108 1.059-.222 2.144-.333 3.253-.333 1.085 0 2.15.104 3.198.314 1.047.209 1.978.573 2.791 1.09.813.518 1.472 1.202 1.978 2.052.504.85.757 1.904.757 3.161 0 .887-.172 1.632-.517 2.236s-.801 1.11-1.368 1.516" fill="#231f20" transform="translate(415.9276 80.4651)"/></g></svg>